<svg id="svg" version="1.1" xmlns="http://www.w3.org/2000/svg" xmlns:xlink="http://www.w3.org/1999/xlink" width="40" height="40" viewBox="0, 0, 400,400"><g id="svgg"><path id="path0" d="M0.000 14.427 L 0.000 28.853 1.067 28.727 C 2.022 28.613,2.244 28.259,3.174 25.359 C 3.825 23.329,4.697 21.568,5.505 20.647 C 6.214 19.839,7.144 18.493,7.571 17.656 C 7.998 16.820,8.989 15.646,9.774 15.047 C 10.558 14.449,11.200 13.712,11.200 13.410 C 11.200 13.108,11.761 12.442,12.446 11.930 C 13.131 11.419,14.367 10.307,15.191 9.461 C 16.015 8.614,17.389 7.601,18.245 7.209 C 19.100 6.818,20.418 5.935,21.173 5.247 C 22.055 4.445,23.630 3.671,25.573 3.086 C 28.300 2.265,28.613 2.067,28.727 1.087 L 28.853 0.000 14.427 0.000 L 0.000 0.000 0.000 14.427 M371.273 1.087 C 371.387 2.067,371.700 2.265,374.427 3.086 C 376.370 3.671,377.945 4.445,378.827 5.247 C 379.582 5.935,380.900 6.818,381.755 7.209 C 382.611 7.601,383.985 8.614,384.809 9.461 C 385.633 10.307,386.869 11.419,387.554 11.930 C 388.239 12.442,388.800 13.108,388.800 13.410 C 388.800 13.712,389.442 14.449,390.226 15.047 C 391.011 15.646,392.009 16.833,392.444 17.686 C 392.879 18.538,393.832 19.903,394.562 20.718 C 395.292 21.533,396.089 22.830,396.333 23.600 C 396.577 24.370,397.021 25.810,397.319 26.800 C 397.767 28.285,398.049 28.622,398.931 28.727 L 400.000 28.853 400.000 14.427 L 400.000 0.000 385.573 0.000 L 371.147 0.000 371.273 1.087 M196.000 86.025 C 195.230 86.209,192.980 86.892,191.000 87.544 C 189.020 88.196,186.907 88.838,186.305 88.971 C 185.703 89.104,184.623 89.761,183.905 90.431 C 183.187 91.101,181.644 92.371,180.476 93.253 C 179.308 94.135,177.868 95.583,177.276 96.470 C 176.684 97.358,175.538 98.837,174.729 99.756 C 173.513 101.137,173.076 102.152,172.210 105.613 C 171.634 107.916,170.844 110.250,170.454 110.800 C 170.064 111.350,169.319 112.566,168.798 113.501 C 167.846 115.212,164.796 117.200,163.123 117.200 C 162.726 117.200,161.727 117.809,160.901 118.554 C 160.076 119.299,158.765 120.173,157.989 120.496 C 157.213 120.820,155.514 122.016,154.214 123.154 C 152.914 124.291,151.441 125.325,150.941 125.450 C 150.442 125.576,149.666 126.300,149.218 127.059 C 148.752 127.849,147.798 128.692,146.988 129.031 C 146.209 129.356,145.413 130.038,145.220 130.547 C 144.866 131.478,142.628 133.600,142.000 133.600 C 141.814 133.600,141.464 134.200,141.222 134.934 C 140.980 135.668,140.230 136.793,139.555 137.434 C 138.881 138.075,137.600 139.822,136.710 141.315 C 135.819 142.808,134.783 144.195,134.406 144.397 C 134.029 144.599,133.332 145.829,132.858 147.130 C 132.383 148.432,131.480 150.144,130.851 150.936 C 129.524 152.606,129.060 153.738,128.418 156.880 C 128.161 158.134,127.487 159.844,126.920 160.680 C 125.258 163.127,124.208 169.482,123.198 183.200 C 122.340 194.854,122.837 304.467,123.760 307.200 C 124.950 310.720,125.318 311.290,126.800 311.899 C 127.570 312.216,128.667 312.914,129.237 313.452 C 130.220 314.378,130.494 314.423,134.429 314.315 L 138.583 314.200 139.054 312.076 C 139.396 310.534,139.541 298.763,139.583 269.076 C 139.647 224.677,139.732 222.210,141.298 219.536 C 141.857 218.581,142.703 216.000,143.177 213.800 C 143.831 210.762,144.328 209.438,145.243 208.294 C 145.905 207.466,146.794 205.781,147.217 204.549 C 147.641 203.318,148.613 201.619,149.377 200.773 C 150.140 199.928,151.135 198.511,151.588 197.624 C 152.040 196.737,152.858 195.718,153.406 195.360 C 153.953 195.001,154.785 194.023,155.255 193.187 C 155.725 192.351,156.701 191.348,157.425 190.959 C 158.148 190.569,158.926 189.842,159.154 189.342 C 159.382 188.842,160.299 188.060,161.192 187.604 C 162.085 187.149,163.307 186.222,163.908 185.546 C 164.508 184.869,166.080 183.775,167.400 183.115 C 168.720 182.455,170.250 181.513,170.800 181.022 C 171.350 180.531,172.970 179.719,174.400 179.218 C 175.830 178.717,177.295 178.048,177.655 177.732 C 178.834 176.698,182.120 175.699,186.600 175.014 C 189.020 174.643,192.368 174.084,194.040 173.770 C 197.940 173.039,202.009 173.046,206.128 173.793 C 207.928 174.119,211.200 174.668,213.400 175.012 C 218.689 175.839,220.016 176.215,221.715 177.368 C 222.499 177.900,224.278 178.739,225.670 179.232 C 227.061 179.725,228.650 180.531,229.200 181.022 C 229.750 181.513,231.280 182.455,232.600 183.115 C 233.920 183.775,235.492 184.869,236.092 185.546 C 236.693 186.222,237.915 187.149,238.808 187.604 C 239.701 188.060,240.618 188.842,240.846 189.342 C 241.074 189.842,241.852 190.569,242.575 190.959 C 243.299 191.348,244.262 192.328,244.717 193.137 C 245.171 193.946,246.096 195.016,246.771 195.515 C 247.446 196.015,248.252 197.028,248.561 197.767 C 248.870 198.507,249.772 199.831,250.567 200.710 C 251.361 201.590,252.333 203.286,252.727 204.481 C 253.122 205.675,254.018 207.367,254.719 208.239 C 255.707 209.469,256.173 210.676,256.793 213.613 C 257.233 215.696,258.072 218.357,258.658 219.527 C 260.360 222.928,260.448 225.145,260.637 269.601 C 260.736 292.812,260.960 312.342,261.136 313.001 L 261.456 314.200 265.591 314.315 C 269.505 314.423,269.781 314.377,270.763 313.452 C 271.333 312.914,272.430 312.216,273.200 311.899 C 274.682 311.290,275.050 310.720,276.240 307.200 C 277.167 304.457,277.665 194.246,276.802 183.000 C 275.741 169.187,274.727 163.105,273.080 160.680 C 272.513 159.844,271.839 158.134,271.582 156.880 C 270.940 153.738,270.476 152.606,269.149 150.936 C 268.520 150.144,267.617 148.432,267.142 147.130 C 266.668 145.829,265.960 144.593,265.570 144.384 C 265.180 144.175,264.280 142.989,263.570 141.747 C 262.859 140.505,261.498 138.611,260.545 137.538 C 259.592 136.465,258.707 135.167,258.578 134.654 C 258.445 134.124,257.771 133.448,257.018 133.089 C 256.251 132.723,255.462 131.924,255.146 131.192 C 254.818 130.431,253.992 129.614,253.074 129.142 C 252.234 128.710,251.190 127.751,250.753 127.010 C 250.316 126.270,249.438 125.482,248.801 125.260 C 248.165 125.038,246.869 124.144,245.922 123.272 C 244.975 122.401,243.390 121.275,242.400 120.771 C 241.410 120.267,239.924 119.258,239.099 118.528 C 238.273 117.797,237.317 117.200,236.973 117.200 C 235.383 117.200,232.378 115.457,231.547 114.052 C 231.074 113.253,230.267 111.965,229.752 111.190 C 229.237 110.414,228.341 107.894,227.762 105.590 C 226.897 102.152,226.447 101.102,225.254 99.742 C 224.454 98.831,223.316 97.358,222.724 96.470 C 222.132 95.583,220.692 94.135,219.524 93.253 C 218.356 92.371,216.813 91.101,216.095 90.431 C 215.377 89.761,214.297 89.104,213.695 88.971 C 213.093 88.838,210.980 88.198,209.000 87.548 C 202.957 85.565,199.591 85.170,196.000 86.025 M207.262 94.570 C 211.100 95.542,211.712 95.826,213.404 97.425 C 214.438 98.401,215.455 99.200,215.664 99.200 C 215.874 99.200,216.389 99.977,216.808 100.926 C 217.228 101.875,218.139 103.245,218.831 103.970 C 221.206 106.455,219.507 110.183,216.284 109.562 C 209.738 108.300,189.074 108.305,183.525 109.569 C 180.403 110.280,178.918 106.423,181.284 103.750 C 182.039 102.898,182.896 101.601,183.190 100.869 C 183.483 100.137,184.190 99.245,184.761 98.886 C 185.333 98.528,186.380 97.656,187.089 96.948 C 188.155 95.885,189.053 95.509,192.289 94.775 C 194.440 94.287,196.470 93.731,196.800 93.540 C 197.820 92.949,202.795 93.439,207.262 94.570 M196.000 185.966 C 195.230 186.145,191.634 186.953,188.009 187.760 C 184.384 188.567,180.986 189.536,180.459 189.914 C 178.218 191.518,177.302 192.038,175.600 192.673 C 172.547 193.813,161.982 203.676,160.364 206.896 C 159.893 207.833,159.091 208.960,158.580 209.400 C 158.026 209.878,157.321 211.327,156.829 213.000 C 156.376 214.540,155.372 217.060,154.599 218.600 C 153.417 220.951,153.126 222.074,152.781 225.600 C 152.163 231.933,152.444 311.851,153.090 313.300 L 153.580 314.400 200.000 314.400 L 246.420 314.400 246.910 313.300 C 247.287 312.454,247.400 302.398,247.400 269.800 C 247.400 223.780,247.382 223.359,245.232 219.483 C 244.597 218.337,243.890 216.500,243.662 215.400 C 243.084 212.612,242.244 210.763,241.047 209.641 C 240.484 209.114,239.817 208.034,239.565 207.241 C 239.314 206.449,238.396 205.080,237.527 204.200 C 236.658 203.320,234.654 201.230,233.073 199.555 C 231.493 197.881,229.642 196.225,228.959 195.876 C 228.277 195.527,227.436 194.809,227.090 194.281 C 226.706 193.696,225.729 193.116,224.584 192.796 C 223.552 192.507,221.822 191.605,220.740 190.792 C 219.020 189.500,218.029 189.150,212.886 188.023 C 209.649 187.314,206.460 186.556,205.800 186.340 C 204.175 185.807,197.732 185.561,196.000 185.966 M216.433 220.334 C 224.707 221.256,227.511 230.283,220.234 232.572 C 217.089 233.561,180.954 233.350,178.792 232.330 C 172.841 229.523,175.913 221.150,183.184 220.359 C 186.402 220.009,213.330 219.989,216.433 220.334 M104.800 244.275 C 99.181 244.954,98.219 245.265,96.570 246.942 C 95.673 247.854,94.525 248.877,94.019 249.215 C 90.560 251.529,89.686 291.144,93.023 294.371 C 93.230 294.571,96.460 294.794,100.200 294.867 C 108.396 295.027,109.375 294.770,109.760 292.359 C 109.981 290.976,110.101 245.600,109.883 245.600 C 109.838 245.600,108.900 245.274,107.800 244.877 C 106.700 244.479,105.350 244.208,104.800 244.275 M292.041 244.895 L 290.033 245.643 290.010 268.210 C 289.984 293.829,289.977 293.723,291.746 294.471 C 293.192 295.081,306.331 294.995,306.977 294.371 C 310.314 291.144,309.440 251.529,305.981 249.215 C 305.475 248.877,304.327 247.857,303.430 246.949 C 302.022 245.523,301.447 245.240,299.200 244.866 C 294.728 244.123,294.102 244.126,292.041 244.895 M0.000 385.600 L 0.000 400.000 14.427 400.000 L 28.853 400.000 28.727 398.931 C 28.616 398.001,28.261 397.750,26.000 397.010 C 22.992 396.026,21.947 395.500,21.192 394.591 C 20.894 394.231,19.739 393.484,18.625 392.929 C 17.511 392.374,15.946 391.263,15.146 390.460 C 14.346 389.657,13.131 388.581,12.446 388.070 C 11.761 387.558,11.200 386.896,11.200 386.599 C 11.200 386.301,10.589 385.550,9.842 384.929 C 9.095 384.308,7.993 382.900,7.394 381.800 C 6.796 380.700,5.989 379.530,5.603 379.200 C 4.459 378.224,3.684 376.756,2.800 373.895 C 2.068 371.524,1.849 371.200,0.984 371.200 L 0.000 371.200 0.000 385.600 M397.593 372.618 C 397.380 373.177,397.090 374.122,396.947 374.718 C 396.564 376.316,395.641 377.998,394.623 378.955 C 394.128 379.420,393.226 380.700,392.620 381.800 C 392.013 382.900,390.905 384.308,390.158 384.929 C 389.411 385.550,388.800 386.284,388.800 386.559 C 388.800 387.170,387.123 388.800,386.495 388.800 C 386.245 388.800,385.550 389.443,384.950 390.230 C 384.351 391.016,382.846 392.171,381.606 392.797 C 380.366 393.423,379.108 394.229,378.809 394.589 C 378.053 395.500,377.009 396.025,374.000 397.010 C 371.739 397.750,371.384 398.001,371.273 398.931 L 371.147 400.000 385.573 400.000 L 400.000 400.000 400.000 385.800 L 400.000 371.600 398.990 371.600 C 398.276 371.600,397.867 371.898,397.593 372.618 " stroke="none" fill="#f5faf3" fill-rule="evenodd"></path><path id="path1" d="M41.200 0.938 C 41.200 2.900,38.801 3.960,32.000 5.001 C 27.904 5.629,26.171 6.290,25.750 7.387 C 25.535 7.946,24.203 8.560,22.299 8.975 C 21.693 9.108,20.343 10.039,19.299 11.045 C 18.254 12.050,16.727 13.219,15.905 13.642 C 14.966 14.125,14.105 15.010,13.589 16.022 C 13.137 16.908,12.068 18.332,11.214 19.186 C 9.404 20.996,8.800 22.007,8.800 23.226 C 8.800 23.716,8.168 24.701,7.375 25.450 C 5.885 26.855,6.014 26.444,4.364 35.000 C 3.797 37.941,2.426 40.171,1.090 40.327 L -0.000 40.453 -0.000 200.000 L -0.000 359.547 1.090 359.673 C 2.426 359.829,3.797 362.059,4.364 365.000 C 6.014 373.556,5.885 373.145,7.375 374.550 C 8.162 375.293,8.800 376.285,8.800 376.767 C 8.800 377.992,9.857 379.898,10.696 380.184 C 11.335 380.402,12.754 382.364,13.962 384.699 C 14.218 385.193,15.134 385.958,15.999 386.399 C 16.863 386.840,18.404 388.012,19.423 389.002 C 20.765 390.306,21.719 390.874,22.880 391.059 C 24.005 391.239,24.939 391.775,26.010 392.858 C 26.850 393.706,27.697 394.400,27.891 394.400 C 32.738 394.400,40.000 397.083,40.000 398.874 L 40.000 400.000 200.000 400.000 L 360.000 400.000 360.000 398.874 C 360.000 397.083,367.262 394.400,372.109 394.400 C 372.303 394.400,373.150 393.706,373.990 392.858 C 375.061 391.775,375.995 391.239,377.120 391.059 C 378.281 390.874,379.235 390.306,380.577 389.002 C 381.596 388.012,383.137 386.840,384.001 386.399 C 384.866 385.958,385.782 385.193,386.038 384.699 C 387.246 382.364,388.665 380.402,389.304 380.184 C 390.143 379.898,391.200 377.992,391.200 376.767 C 391.200 376.287,391.816 375.313,392.570 374.603 C 394.031 373.224,394.450 372.043,395.197 367.200 C 395.867 362.858,397.309 360.000,398.829 360.000 L 400.000 360.000 400.000 199.600 L 400.000 39.200 398.900 39.197 C 397.317 39.193,396.099 37.178,395.367 33.354 C 394.211 27.314,394.019 26.764,392.584 25.410 C 391.821 24.691,391.200 23.711,391.200 23.226 C 391.200 22.007,390.596 20.996,388.786 19.186 C 387.932 18.332,386.863 16.908,386.411 16.022 C 385.888 14.997,385.038 14.130,384.074 13.638 C 383.241 13.213,381.821 12.127,380.919 11.225 C 379.836 10.142,378.507 9.331,377.008 8.836 C 375.758 8.424,374.471 7.708,374.147 7.246 C 373.256 5.973,372.478 5.691,367.959 4.997 C 361.197 3.958,358.800 2.896,358.800 0.938 L 358.800 0.000 200.000 0.000 L 41.200 0.000 41.200 0.938 M207.400 82.809 C 211.839 83.433,212.310 83.588,213.956 84.963 C 214.811 85.678,216.534 86.584,217.784 86.977 C 219.620 87.555,220.175 87.939,220.668 88.974 C 221.058 89.791,221.882 90.536,222.940 91.028 C 224.196 91.612,224.709 92.141,225.047 93.200 C 225.293 93.970,225.859 94.787,226.305 95.016 C 227.914 95.841,228.395 96.527,229.268 99.239 C 229.866 101.096,230.404 102.074,230.915 102.236 C 232.002 102.582,232.800 104.807,232.800 107.498 C 232.800 110.099,233.448 111.375,234.964 111.755 C 235.505 111.891,236.331 112.541,236.801 113.201 C 237.270 113.860,237.995 114.400,238.412 114.400 C 240.170 114.400,243.613 116.064,244.199 117.198 C 244.574 117.924,245.329 118.508,246.293 118.817 C 248.135 119.409,249.056 120.173,249.353 121.356 C 249.511 121.987,250.028 122.365,251.087 122.627 C 252.270 122.919,252.773 123.341,253.414 124.579 C 254.014 125.738,254.583 126.248,255.555 126.500 C 256.577 126.765,257.028 127.201,257.539 128.417 C 257.903 129.283,258.439 129.994,258.731 129.996 C 259.566 130.002,261.600 132.250,261.600 133.166 C 261.600 133.730,262.077 134.218,263.100 134.699 C 264.293 135.259,264.678 135.720,264.982 136.949 C 265.260 138.075,265.759 138.743,266.821 139.413 C 268.043 140.185,268.426 140.794,269.195 143.185 C 269.919 145.435,270.351 146.161,271.242 146.621 C 272.029 147.029,272.496 147.689,272.785 148.803 C 273.013 149.681,273.384 151.111,273.610 151.979 C 273.835 152.847,274.532 154.071,275.159 154.698 C 276.348 155.887,276.866 157.622,277.623 162.964 C 277.875 164.736,278.303 166.071,278.784 166.586 C 281.167 169.130,281.244 171.732,281.114 244.400 L 281.000 308.200 280.092 309.900 C 279.592 310.835,279.012 311.600,278.803 311.600 C 278.593 311.600,277.742 312.620,276.911 313.866 C 274.793 317.042,273.829 317.347,265.800 317.376 C 259.999 317.398,259.301 317.325,258.338 316.600 C 256.077 314.896,256.219 317.651,255.958 270.400 C 255.724 228.035,255.625 224.643,254.434 218.198 C 254.026 215.995,253.124 213.847,252.424 213.415 C 252.213 213.285,251.556 211.619,250.962 209.714 C 250.181 207.209,249.568 205.985,248.748 205.295 C 248.125 204.771,247.423 203.626,247.187 202.752 C 246.927 201.787,246.058 200.452,244.972 199.350 C 243.988 198.353,242.826 196.835,242.388 195.977 C 241.950 195.119,241.099 194.158,240.496 193.841 C 239.893 193.525,238.680 192.516,237.800 191.598 C 236.920 190.681,235.300 189.474,234.200 188.915 C 233.100 188.356,232.045 187.631,231.855 187.304 C 231.155 186.099,229.975 185.200,229.094 185.200 C 227.934 185.200,225.262 183.798,224.101 182.580 C 223.606 182.061,222.526 181.521,221.701 181.379 C 218.392 180.811,215.620 179.955,213.809 178.943 C 209.758 176.679,190.242 176.679,186.191 178.943 C 184.380 179.955,181.608 180.811,178.299 181.379 C 177.474 181.521,176.394 182.061,175.899 182.580 C 174.738 183.798,172.066 185.200,170.906 185.200 C 170.025 185.200,168.845 186.099,168.145 187.304 C 167.955 187.631,166.900 188.356,165.800 188.915 C 164.700 189.474,163.080 190.681,162.200 191.598 C 161.320 192.516,160.107 193.525,159.504 193.841 C 158.901 194.158,158.046 195.126,157.603 195.994 C 157.161 196.861,155.992 198.400,155.007 199.414 C 153.956 200.496,153.044 201.895,152.800 202.800 C 152.572 203.648,151.860 204.783,151.218 205.323 C 150.384 206.025,149.803 207.143,149.175 209.252 C 148.693 210.874,147.772 213.073,147.128 214.140 C 145.975 216.053,145.650 217.282,144.737 223.200 C 144.419 225.258,144.199 240.013,144.035 270.200 C 143.903 294.400,143.653 314.488,143.478 314.839 C 142.399 317.015,140.985 317.401,134.200 317.376 C 126.171 317.347,125.207 317.042,123.089 313.866 C 122.258 312.620,121.407 311.600,121.197 311.600 C 120.988 311.600,120.408 310.835,119.908 309.900 L 119.000 308.200 118.886 244.400 C 118.755 171.524,118.849 168.515,121.318 166.467 C 121.672 166.174,122.073 165.094,122.211 164.067 C 123.007 158.111,123.712 155.577,124.835 154.632 C 125.632 153.961,126.138 152.957,126.591 151.145 C 127.413 147.857,127.953 146.827,128.988 146.567 C 129.630 146.406,130.051 145.643,130.762 143.353 C 131.576 140.731,131.891 140.226,133.247 139.370 C 134.228 138.751,134.800 138.088,134.800 137.569 C 134.800 136.224,135.543 135.234,137.014 134.620 C 137.776 134.301,138.400 133.770,138.400 133.439 C 138.400 132.162,139.379 130.787,140.604 130.344 C 141.501 130.020,142.030 129.473,142.378 128.511 C 142.755 127.468,143.295 126.959,144.637 126.384 C 145.828 125.874,146.400 125.384,146.400 124.876 C 146.400 123.864,147.573 122.865,149.126 122.555 C 149.827 122.415,150.400 122.077,150.400 121.804 C 150.400 120.806,151.987 119.331,153.570 118.856 C 154.681 118.523,155.384 118.004,155.792 117.216 C 156.384 116.070,159.811 114.400,161.569 114.400 C 161.975 114.400,162.613 113.935,162.985 113.367 C 163.358 112.798,164.272 112.079,165.017 111.767 C 166.752 111.042,167.200 110.164,167.200 107.486 C 167.200 104.765,167.794 103.027,168.992 102.242 C 169.577 101.859,170.245 100.668,170.785 99.046 C 171.635 96.491,172.115 95.827,173.695 95.016 C 174.141 94.787,174.707 93.970,174.953 93.200 C 175.291 92.141,175.804 91.612,177.058 91.029 C 178.112 90.539,178.914 89.814,179.258 89.041 C 179.692 88.068,180.307 87.645,182.331 86.926 C 183.724 86.432,185.475 85.491,186.223 84.834 C 187.562 83.657,188.304 83.418,192.487 82.808 C 195.591 82.355,204.176 82.356,207.400 82.809 M195.400 97.595 C 193.469 97.824,192.462 98.243,190.247 99.740 C 188.733 100.763,187.177 101.600,186.790 101.600 C 185.970 101.600,185.764 102.032,185.387 104.549 C 185.064 106.701,186.161 107.133,188.091 105.614 C 191.179 103.186,209.699 103.006,211.441 105.388 C 211.702 105.745,212.579 106.144,213.391 106.276 L 214.866 106.515 214.583 104.558 C 214.281 102.476,213.813 101.600,213.004 101.600 C 212.730 101.600,211.267 100.766,209.753 99.747 C 206.201 97.357,202.311 96.774,195.400 97.595 M209.000 182.815 C 214.466 183.330,216.029 183.738,217.268 184.977 C 217.873 185.582,219.297 186.216,221.021 186.648 C 223.212 187.197,224.121 187.668,225.315 188.872 C 226.149 189.712,227.101 190.400,227.431 190.400 C 228.517 190.400,231.165 191.984,232.026 193.150 C 232.491 193.778,233.578 194.690,234.442 195.176 C 235.395 195.711,236.333 196.684,236.823 197.645 C 237.268 198.518,238.075 199.434,238.616 199.680 C 239.157 199.926,240.080 200.954,240.668 201.964 C 241.256 202.974,242.491 204.730,243.412 205.868 C 244.465 207.168,245.180 208.516,245.337 209.499 C 245.475 210.359,245.968 211.499,246.433 212.032 C 248.033 213.865,248.738 215.854,249.403 220.421 C 249.770 222.940,250.459 225.900,250.935 227.000 L 251.800 229.000 251.909 271.931 L 252.017 314.863 250.823 315.978 C 249.037 317.647,250.508 317.601,199.650 317.591 C 146.779 317.581,149.613 317.728,148.459 314.943 C 148.094 314.061,148.006 303.300,148.090 269.792 L 148.200 225.800 149.111 223.951 C 149.612 222.933,150.291 220.561,150.620 218.679 C 151.310 214.727,151.992 212.893,153.171 211.826 C 153.631 211.410,154.277 210.164,154.605 209.059 C 154.933 207.954,155.916 206.202,156.790 205.166 C 157.664 204.129,158.744 202.663,159.189 201.908 C 159.635 201.152,160.720 199.955,161.600 199.248 C 162.480 198.541,163.200 197.757,163.200 197.507 C 163.200 196.871,164.832 195.200,165.453 195.200 C 165.735 195.200,166.469 194.557,167.083 193.771 C 168.120 192.444,170.601 190.875,172.681 190.231 C 173.165 190.081,174.155 189.369,174.881 188.648 C 175.840 187.695,176.931 187.156,178.882 186.669 C 180.522 186.260,181.941 185.623,182.536 185.028 C 184.764 182.799,197.512 181.733,209.000 182.815 M180.652 225.392 C 179.883 225.974,180.775 229.985,181.679 230.008 C 181.856 230.013,190.100 230.017,200.000 230.017 C 209.900 230.017,218.144 230.013,218.321 230.008 C 219.225 229.985,220.117 225.974,219.348 225.392 C 218.236 224.550,181.764 224.550,180.652 225.392 M111.600 240.357 C 113.451 241.686,113.534 242.897,113.566 269.200 C 113.597 294.879,113.508 296.366,111.882 297.295 C 110.343 298.176,93.147 297.991,90.492 297.065 C 86.882 295.807,87.019 296.616,86.878 275.711 C 86.747 256.426,86.983 252.552,88.392 250.825 C 88.853 250.261,89.538 249.288,89.915 248.662 C 91.986 245.221,95.180 242.400,97.005 242.400 C 97.492 242.400,98.564 241.865,99.387 241.210 C 100.211 240.556,101.540 239.914,102.342 239.784 C 103.144 239.653,104.070 239.480,104.400 239.399 C 105.865 239.037,110.649 239.674,111.600 240.357 M298.706 240.040 C 299.259 240.251,300.240 240.867,300.886 241.411 C 301.533 241.955,302.470 242.400,302.970 242.400 C 304.819 242.400,308.003 245.202,310.085 248.662 C 310.462 249.288,311.147 250.261,311.608 250.825 C 313.017 252.552,313.253 256.426,313.122 275.711 C 312.981 296.616,313.118 295.807,309.508 297.065 C 306.853 297.991,289.657 298.176,288.118 297.295 C 286.499 296.369,286.405 294.846,286.402 269.520 C 286.400 244.371,286.538 241.923,288.039 240.565 C 289.471 239.269,295.852 238.955,298.706 240.040 " stroke="none" fill="#a4d47c" fill-rule="evenodd"></path><path id="path2" d="M32.727 1.100 C 32.610 2.110,32.266 2.315,28.532 3.600 C 26.295 4.370,23.946 5.384,23.313 5.852 C 22.679 6.321,21.223 7.180,20.077 7.761 C 17.670 8.981,15.606 10.794,10.800 15.912 C 8.473 18.390,4.859 24.518,3.786 27.804 C 2.443 31.919,2.150 32.400,0.986 32.400 C 0.102 32.400,0.000 32.566,0.000 34.000 C 0.000 35.437,0.101 35.600,0.992 35.600 C 2.265 35.600,3.162 33.895,4.548 28.833 C 5.115 26.766,5.919 24.698,6.335 24.237 C 6.751 23.777,7.766 22.176,8.592 20.679 C 9.417 19.182,10.532 17.670,11.069 17.318 C 11.607 16.966,12.388 16.007,12.807 15.186 C 13.269 14.280,14.270 13.284,15.357 12.646 C 16.342 12.069,17.250 11.272,17.376 10.875 C 17.503 10.477,18.898 9.533,20.477 8.776 C 22.055 8.019,23.855 6.941,24.476 6.379 C 25.232 5.696,26.797 5.062,29.204 4.464 C 34.576 3.130,36.400 2.256,36.400 1.014 C 36.400 -0.610,32.914 -0.529,32.727 1.100 M363.600 1.014 C 363.600 2.250,365.340 3.090,370.654 4.419 C 372.860 4.971,374.578 5.654,375.200 6.228 C 375.750 6.735,377.569 7.798,379.241 8.591 C 381.030 9.439,382.488 10.417,382.782 10.965 C 383.056 11.478,383.986 12.294,384.847 12.778 C 385.765 13.294,386.733 14.284,387.184 15.168 C 387.607 15.999,388.393 16.966,388.931 17.318 C 389.468 17.670,390.583 19.182,391.408 20.679 C 392.234 22.176,393.249 23.777,393.665 24.237 C 394.081 24.698,394.885 26.766,395.452 28.833 C 396.838 33.895,397.735 35.600,399.008 35.600 C 399.899 35.600,400.000 35.437,400.000 34.000 C 400.000 32.554,399.902 32.400,398.986 32.400 C 397.871 32.400,397.110 31.033,395.870 26.800 C 394.824 23.231,390.727 17.256,386.473 13.097 C 382.708 9.416,381.923 8.775,379.964 7.782 C 378.795 7.190,377.321 6.321,376.687 5.852 C 376.054 5.384,373.705 4.370,371.468 3.600 C 367.734 2.315,367.390 2.110,367.273 1.100 C 367.086 -0.529,363.600 -0.610,363.600 1.014 M194.077 83.643 C 191.494 83.944,189.074 84.761,187.200 85.966 C 186.870 86.178,185.534 86.817,184.232 87.385 C 182.929 87.953,181.002 89.224,179.949 90.209 C 178.896 91.194,177.855 92.000,177.636 92.000 C 177.417 92.000,176.657 92.855,175.947 93.900 C 175.236 94.945,173.977 96.579,173.149 97.532 C 172.321 98.484,171.340 100.175,170.970 101.290 C 170.600 102.404,169.887 103.920,169.386 104.659 C 168.885 105.397,168.345 106.944,168.187 108.096 C 167.703 111.615,165.812 113.733,161.824 115.225 C 160.565 115.697,158.964 116.572,158.267 117.172 C 157.570 117.771,155.964 118.846,154.698 119.561 C 153.431 120.276,152.210 121.207,151.984 121.629 C 151.758 122.052,150.870 122.756,150.010 123.195 C 149.150 123.634,147.956 124.635,147.358 125.420 C 146.759 126.205,145.758 127.112,145.132 127.435 C 144.507 127.758,143.553 128.723,143.013 129.580 C 142.472 130.436,141.660 131.254,141.208 131.397 C 140.756 131.541,140.035 132.348,139.604 133.191 C 139.174 134.034,138.332 135.110,137.732 135.582 C 137.132 136.054,136.253 137.123,135.779 137.958 C 135.305 138.792,134.177 140.412,133.272 141.556 C 132.368 142.701,131.456 144.258,131.246 145.017 C 131.037 145.776,130.246 147.120,129.489 148.004 C 128.593 149.051,127.805 150.650,127.230 152.585 C 126.745 154.221,126.031 155.973,125.643 156.479 C 124.490 157.986,123.669 160.507,123.023 164.518 C 122.689 166.598,122.038 169.177,121.577 170.249 C 119.847 174.280,119.800 176.181,119.800 242.600 C 119.800 302.483,119.837 305.873,120.514 307.200 C 124.524 315.059,126.486 316.483,133.642 316.724 C 138.692 316.895,140.271 316.476,141.288 314.696 C 141.691 313.991,141.847 304.972,142.021 272.400 C 142.234 232.522,142.273 230.816,143.095 226.000 C 144.569 217.355,145.501 213.848,147.148 210.741 C 148.006 209.123,148.818 207.319,148.954 206.731 C 149.089 206.143,149.621 205.153,150.136 204.531 C 150.651 203.909,151.752 202.176,152.582 200.679 C 153.413 199.182,154.532 197.670,155.069 197.318 C 155.607 196.966,156.397 195.989,156.827 195.147 C 157.256 194.305,158.143 193.340,158.797 193.002 C 159.451 192.663,160.394 191.832,160.893 191.154 C 161.392 190.477,162.340 189.643,163.000 189.302 C 163.660 188.961,165.109 187.908,166.219 186.962 C 167.330 186.015,169.130 184.860,170.219 184.395 C 171.309 183.929,172.650 183.128,173.200 182.613 C 173.750 182.099,175.730 181.207,177.600 180.632 C 179.470 180.057,182.170 179.057,183.600 178.409 C 189.696 175.650,210.304 175.650,216.400 178.409 C 217.830 179.057,220.530 180.057,222.400 180.632 C 224.270 181.207,226.250 182.099,226.800 182.613 C 227.350 183.128,228.691 183.929,229.781 184.395 C 230.870 184.860,232.670 186.015,233.781 186.962 C 234.891 187.908,236.340 188.961,237.000 189.302 C 237.660 189.643,238.608 190.477,239.107 191.154 C 239.606 191.832,240.549 192.663,241.203 193.002 C 241.857 193.340,242.744 194.305,243.173 195.147 C 243.603 195.989,244.393 196.966,244.931 197.318 C 245.468 197.670,246.587 199.182,247.418 200.679 C 248.248 202.176,249.349 203.909,249.864 204.531 C 250.379 205.153,250.911 206.143,251.046 206.731 C 251.182 207.319,252.003 209.141,252.872 210.779 C 254.518 213.882,255.289 216.805,256.886 226.000 C 257.729 230.850,257.761 232.246,257.977 272.400 C 258.218 317.122,258.101 315.011,260.392 316.196 C 265.449 318.811,274.725 315.834,277.530 310.695 C 280.521 305.216,280.200 313.406,280.200 242.600 C 280.200 176.181,280.153 174.280,278.423 170.249 C 277.962 169.177,277.311 166.598,276.977 164.518 C 276.331 160.507,275.510 157.986,274.357 156.479 C 273.969 155.973,273.255 154.221,272.770 152.585 C 272.222 150.740,271.400 149.041,270.604 148.106 C 269.898 147.278,269.099 145.922,268.827 145.094 C 268.556 144.266,267.603 142.663,266.708 141.532 C 265.814 140.401,264.695 138.792,264.221 137.958 C 263.747 137.123,262.868 136.054,262.268 135.582 C 261.668 135.110,260.826 134.034,260.396 133.191 C 259.965 132.348,259.244 131.541,258.792 131.397 C 258.340 131.254,257.528 130.436,256.987 129.580 C 256.447 128.723,255.493 127.758,254.868 127.435 C 254.242 127.112,253.241 126.205,252.642 125.420 C 252.044 124.635,250.850 123.634,249.990 123.195 C 249.130 122.756,248.242 122.052,248.016 121.629 C 247.790 121.207,246.569 120.276,245.302 119.561 C 244.036 118.846,242.430 117.771,241.733 117.172 C 241.036 116.572,239.435 115.697,238.176 115.225 C 234.188 113.733,232.297 111.615,231.813 108.096 C 231.655 106.944,231.115 105.397,230.614 104.659 C 230.113 103.920,229.400 102.404,229.030 101.290 C 228.660 100.175,227.679 98.484,226.851 97.532 C 226.023 96.579,224.764 94.945,224.053 93.900 C 223.343 92.855,222.583 92.000,222.364 92.000 C 222.145 92.000,221.104 91.194,220.051 90.209 C 218.998 89.224,217.071 87.953,215.768 87.385 C 214.466 86.817,213.130 86.178,212.800 85.966 C 209.061 83.561,202.156 82.705,194.077 83.643 M206.480 84.839 C 207.646 85.080,209.500 85.700,210.600 86.217 C 211.700 86.733,213.590 87.593,214.800 88.128 C 219.191 90.069,227.243 98.238,228.203 101.726 C 228.336 102.207,228.875 103.680,229.401 105.000 C 229.927 106.320,230.543 108.122,230.769 109.004 C 231.624 112.346,233.089 113.959,237.000 115.867 C 240.421 117.535,242.683 118.921,246.139 121.467 C 246.985 122.090,248.335 123.083,249.139 123.674 C 251.680 125.542,259.263 133.143,260.446 135.009 C 261.071 135.994,261.742 136.800,261.936 136.800 C 262.283 136.800,265.663 141.715,267.551 144.964 C 268.073 145.864,269.211 147.801,270.078 149.269 C 270.945 150.738,271.981 152.988,272.380 154.269 C 272.779 155.551,273.656 157.770,274.330 159.200 C 275.081 160.794,275.883 163.580,276.402 166.400 C 276.868 168.930,277.501 171.865,277.810 172.923 C 279.088 177.307,279.245 186.042,279.122 246.200 L 279.000 305.800 277.387 308.800 C 274.820 313.576,272.084 315.429,267.042 315.807 C 262.809 316.124,261.747 315.971,260.351 314.841 L 259.400 314.071 259.175 271.536 C 259.013 240.901,258.816 228.306,258.470 226.521 C 257.233 220.139,254.696 211.316,253.605 209.600 C 252.976 208.610,252.150 206.990,251.770 206.000 C 251.390 205.010,250.667 203.641,250.163 202.958 C 249.659 202.274,248.708 200.801,248.049 199.683 C 246.318 196.747,240.007 190.082,237.200 188.226 C 236.430 187.716,235.291 186.822,234.668 186.240 C 234.046 185.657,232.426 184.625,231.068 183.946 C 229.711 183.268,228.228 182.372,227.773 181.955 C 227.318 181.538,225.455 180.653,223.633 179.988 C 221.811 179.323,219.775 178.497,219.109 178.153 C 211.825 174.386,188.175 174.386,180.891 178.153 C 180.225 178.497,178.189 179.323,176.367 179.988 C 174.545 180.653,172.682 181.538,172.227 181.955 C 171.772 182.372,170.254 183.286,168.854 183.986 C 167.454 184.685,165.924 185.667,165.454 186.168 C 164.984 186.669,163.880 187.535,163.000 188.092 C 158.634 190.858,150.278 200.893,148.423 205.600 C 148.119 206.370,147.255 208.124,146.502 209.497 C 145.700 210.962,144.557 214.188,143.739 217.297 C 140.936 227.952,141.106 224.764,140.841 271.400 C 140.709 294.720,140.454 314.026,140.275 314.303 C 138.848 316.507,130.969 316.557,127.577 314.384 C 125.103 312.798,124.185 311.748,122.466 308.538 L 121.000 305.800 120.876 246.600 C 120.751 186.847,120.920 177.275,122.181 172.953 C 122.495 171.879,123.131 168.930,123.595 166.400 C 124.142 163.421,124.911 160.794,125.778 158.947 C 126.514 157.378,127.401 155.114,127.749 153.916 C 128.097 152.718,128.870 151.032,129.467 150.169 C 130.064 149.306,131.193 147.408,131.976 145.950 C 133.855 142.454,137.616 136.800,138.064 136.800 C 138.258 136.800,138.928 135.995,139.553 135.010 C 140.649 133.282,149.881 124.006,150.509 124.002 C 150.679 124.001,151.579 123.313,152.509 122.473 C 153.439 121.634,155.100 120.432,156.200 119.804 C 157.300 119.176,158.830 118.171,159.600 117.571 C 160.370 116.972,161.450 116.350,162.000 116.189 C 166.021 115.015,168.608 112.301,169.334 108.493 C 169.471 107.775,170.009 106.245,170.531 105.093 C 171.053 103.942,171.592 102.535,171.731 101.966 C 172.677 98.076,181.859 88.967,186.200 87.612 C 187.080 87.337,188.413 86.761,189.163 86.333 C 192.245 84.569,201.375 83.782,206.480 84.839 M196.000 95.439 C 189.862 96.573,184.570 99.676,183.844 102.567 C 183.710 103.101,183.131 104.096,182.558 104.777 C 180.593 107.112,183.348 108.412,188.569 107.614 C 191.414 107.179,203.361 107.223,214.218 107.710 C 217.025 107.835,218.763 106.754,217.816 105.471 C 217.463 104.992,216.825 103.867,216.399 102.971 C 213.856 97.618,203.968 93.967,196.000 95.439 M208.200 97.209 C 209.080 97.464,210.340 98.186,211.000 98.813 C 211.660 99.440,212.806 100.368,213.547 100.876 C 214.746 101.698,215.318 102.703,216.257 105.639 C 216.632 106.812,214.432 107.352,211.732 106.749 C 210.178 106.402,206.264 106.228,200.000 106.228 C 193.736 106.228,189.822 106.402,188.268 106.749 C 185.568 107.352,183.368 106.812,183.743 105.639 C 184.682 102.703,185.254 101.698,186.453 100.876 C 187.194 100.368,188.340 99.435,189.000 98.803 C 190.072 97.776,191.524 97.234,194.800 96.638 C 196.605 96.310,206.564 96.734,208.200 97.209 M192.800 183.605 C 188.646 184.038,186.182 184.631,184.600 185.580 C 183.940 185.976,182.140 186.695,180.600 187.178 C 179.060 187.661,177.123 188.593,176.296 189.250 C 175.469 189.907,174.152 190.712,173.370 191.038 C 171.546 191.800,165.773 196.490,163.677 198.911 C 162.789 199.937,161.497 201.367,160.807 202.089 C 160.117 202.810,159.221 204.030,158.815 204.800 C 158.410 205.570,157.612 206.635,157.043 207.166 C 156.474 207.697,155.633 209.137,155.174 210.366 C 154.715 211.595,153.826 213.500,153.198 214.600 C 152.004 216.691,150.845 221.621,150.000 228.200 C 149.052 235.581,149.626 313.308,150.639 314.671 C 152.289 316.893,149.851 316.788,200.000 316.788 C 250.149 316.788,247.711 316.893,249.361 314.671 C 250.692 312.879,250.884 239.154,249.586 228.400 C 248.602 220.250,247.902 217.139,246.616 215.200 C 246.106 214.430,245.302 212.611,244.830 211.157 C 244.351 209.678,243.521 208.092,242.947 207.557 C 242.384 207.031,241.559 205.891,241.115 205.026 C 239.350 201.584,229.500 192.070,226.722 191.124 C 225.995 190.876,224.830 190.180,224.133 189.578 C 223.012 188.609,219.012 186.800,217.991 186.800 C 217.782 186.800,216.574 186.264,215.306 185.610 C 211.622 183.709,200.939 182.757,192.800 183.605 M207.491 184.810 C 211.405 185.301,220.305 188.340,222.600 189.970 C 223.480 190.595,224.882 191.391,225.717 191.739 C 228.908 193.073,238.908 202.682,240.609 206.048 C 240.984 206.792,241.710 207.850,242.221 208.400 C 242.732 208.950,243.698 210.886,244.366 212.701 C 245.034 214.517,245.872 216.565,246.227 217.253 C 248.854 222.333,249.000 225.215,249.000 272.133 L 249.000 313.666 247.694 314.833 L 246.387 316.000 200.000 316.000 L 153.613 316.000 152.306 314.833 L 151.000 313.666 151.000 270.133 C 151.000 221.365,150.968 221.976,153.787 216.200 C 154.538 214.660,155.527 212.389,155.985 211.154 C 156.442 209.919,157.192 208.569,157.651 208.154 C 158.110 207.739,158.829 206.727,159.249 205.904 C 160.754 202.954,170.696 193.511,174.180 191.722 C 175.269 191.163,176.799 190.286,177.580 189.773 C 183.798 185.691,197.019 183.497,207.491 184.810 M179.682 223.700 C 176.492 225.660,176.502 229.240,179.703 230.902 C 181.947 232.066,218.053 232.066,220.297 230.902 C 223.511 229.234,223.511 225.642,220.297 223.694 L 218.161 222.400 199.980 222.400 L 181.799 222.400 179.682 223.700 M219.829 224.638 C 221.822 225.806,221.869 225.969,220.855 228.200 C 219.588 230.984,220.792 230.832,200.000 230.832 C 179.208 230.832,180.412 230.984,179.145 228.200 C 178.136 225.980,178.180 225.814,180.100 224.656 L 181.800 223.631 199.929 223.616 L 218.058 223.600 219.829 224.638 M103.290 241.570 C 102.129 241.998,100.192 242.553,98.984 242.803 C 96.687 243.280,90.800 248.219,90.800 249.669 C 90.800 249.996,90.215 251.146,89.500 252.225 L 88.200 254.187 88.077 272.393 C 87.905 297.750,87.629 297.213,100.800 297.180 C 108.046 297.163,110.142 296.840,111.440 295.542 L 112.389 294.593 112.406 269.677 C 112.422 246.732,112.368 244.669,111.729 243.588 C 110.337 241.230,106.622 240.342,103.290 241.570 M292.200 241.086 C 287.330 242.261,287.574 240.745,287.594 269.677 L 287.611 294.593 288.573 295.555 C 289.840 296.822,292.016 297.147,299.400 297.174 C 312.336 297.221,312.095 297.698,311.923 272.393 L 311.800 254.187 310.500 252.225 C 309.785 251.146,309.200 249.996,309.200 249.669 C 309.200 248.220,303.313 243.280,301.019 242.804 C 299.813 242.554,297.835 242.000,296.623 241.574 C 294.423 240.801,293.708 240.722,292.200 241.086 M108.264 242.858 C 111.797 243.748,111.626 242.320,111.505 269.858 C 111.377 299.264,112.590 296.532,99.817 296.162 C 92.199 295.941,91.512 295.677,89.991 292.384 L 88.981 290.200 89.199 272.800 L 89.417 255.400 90.655 252.400 C 91.841 249.527,94.430 246.346,97.030 244.567 C 98.963 243.245,105.720 242.217,108.264 242.858 M298.238 243.208 C 302.627 244.111,302.923 244.267,305.953 247.268 C 307.543 248.842,308.431 250.185,309.345 252.400 L 310.583 255.400 310.801 272.800 L 311.019 290.200 310.009 292.384 C 308.488 295.677,307.801 295.941,300.183 296.162 C 287.410 296.532,288.623 299.264,288.495 269.858 C 288.375 242.600,288.250 243.741,291.465 242.889 C 293.670 242.305,293.904 242.316,298.238 243.208 M0.000 366.000 C 0.000 367.434,0.102 367.600,0.986 367.600 C 2.148 367.600,2.394 368.004,3.730 372.100 C 5.126 376.378,9.713 383.315,13.539 386.933 C 17.099 390.301,17.845 390.909,19.365 391.680 C 20.264 392.136,21.789 393.050,22.753 393.710 C 23.717 394.371,26.237 395.562,28.353 396.357 C 31.828 397.663,32.212 397.909,32.327 398.901 C 32.511 400.499,35.600 400.600,35.600 399.008 C 35.600 397.751,33.865 396.821,29.195 395.575 C 27.306 395.071,25.356 394.273,24.800 393.776 C 24.250 393.285,22.499 392.235,20.909 391.441 C 19.319 390.648,17.716 389.539,17.348 388.976 C 16.979 388.414,15.988 387.602,15.144 387.172 C 14.169 386.674,13.315 385.810,12.800 384.800 C 12.354 383.927,11.564 382.933,11.043 382.591 C 10.522 382.250,9.510 380.852,8.794 379.485 C 8.077 378.118,7.046 376.519,6.501 375.932 C 5.863 375.243,5.161 373.548,4.525 371.155 C 3.199 366.174,2.271 364.400,0.992 364.400 C 0.101 364.400,0.000 364.563,0.000 366.000 M396.996 366.267 C 396.604 367.293,395.879 369.648,395.384 371.500 C 394.825 373.594,394.112 375.270,393.497 375.933 C 392.954 376.520,391.923 378.118,391.206 379.485 C 390.490 380.852,389.478 382.250,388.957 382.591 C 388.436 382.933,387.646 383.927,387.200 384.800 C 386.685 385.810,385.831 386.674,384.856 387.172 C 384.012 387.602,383.021 388.414,382.652 388.976 C 382.284 389.539,380.681 390.648,379.091 391.441 C 377.501 392.235,375.750 393.285,375.200 393.776 C 374.644 394.273,372.694 395.071,370.805 395.575 C 366.135 396.821,364.400 397.751,364.400 399.008 C 364.400 400.600,367.489 400.499,367.673 398.901 C 367.788 397.909,368.172 397.663,371.647 396.357 C 373.763 395.562,376.283 394.371,377.247 393.710 C 378.211 393.050,379.786 392.111,380.746 391.623 C 382.958 390.500,386.512 387.217,389.521 383.516 C 392.737 379.560,394.929 375.809,396.367 371.800 C 397.675 368.152,397.898 367.789,398.901 367.673 C 400.623 367.475,400.579 364.400,398.854 364.400 C 397.859 364.400,397.615 364.645,396.996 366.267 " stroke="none" fill="#c1e5aa" fill-rule="evenodd"></path><path id="path3" d="M28.727 1.087 C 28.613 2.067,28.300 2.265,25.573 3.086 C 23.630 3.671,22.055 4.445,21.173 5.247 C 20.418 5.935,19.100 6.818,18.245 7.209 C 17.389 7.601,16.015 8.614,15.191 9.461 C 14.367 10.307,13.131 11.419,12.446 11.930 C 11.761 12.442,11.200 13.108,11.200 13.410 C 11.200 13.712,10.558 14.449,9.774 15.047 C 8.989 15.646,7.998 16.820,7.571 17.656 C 7.144 18.493,6.214 19.839,5.505 20.647 C 4.697 21.568,3.825 23.329,3.174 25.359 C 2.244 28.259,2.022 28.613,1.067 28.727 C -0.510 28.914,-0.587 32.400,0.986 32.400 C 2.150 32.400,2.443 31.919,3.786 27.804 C 4.859 24.518,8.473 18.390,10.800 15.912 C 15.606 10.794,17.670 8.981,20.077 7.761 C 21.223 7.180,22.679 6.321,23.313 5.852 C 23.946 5.384,26.295 4.370,28.532 3.600 C 32.266 2.315,32.610 2.110,32.727 1.100 C 32.850 0.030,32.799 0.000,30.853 0.000 C 28.975 0.000,28.845 0.066,28.727 1.087 M367.273 1.100 C 367.390 2.110,367.734 2.315,371.468 3.600 C 373.705 4.370,376.054 5.384,376.687 5.852 C 377.321 6.321,378.795 7.190,379.964 7.782 C 381.923 8.775,382.708 9.416,386.473 13.097 C 390.727 17.256,394.824 23.231,395.870 26.800 C 397.110 31.033,397.871 32.400,398.986 32.400 C 400.585 32.400,400.533 28.916,398.931 28.727 C 398.049 28.622,397.767 28.285,397.319 26.800 C 397.021 25.810,396.577 24.370,396.333 23.600 C 396.089 22.830,395.292 21.533,394.562 20.718 C 393.832 19.903,392.879 18.538,392.444 17.686 C 392.009 16.833,391.011 15.646,390.226 15.047 C 389.442 14.449,388.800 13.712,388.800 13.410 C 388.800 13.108,388.239 12.442,387.554 11.930 C 386.869 11.419,385.633 10.307,384.809 9.461 C 383.985 8.614,382.611 7.601,381.755 7.209 C 380.900 6.818,379.582 5.935,378.827 5.247 C 377.945 4.445,376.370 3.671,374.427 3.086 C 371.700 2.265,371.387 2.067,371.273 1.087 C 371.155 0.066,371.025 -0.000,369.147 -0.000 C 367.201 -0.000,367.150 0.030,367.273 1.100 M192.763 85.010 C 191.532 85.309,189.912 85.904,189.163 86.333 C 188.413 86.761,187.080 87.337,186.200 87.612 C 181.859 88.967,172.677 98.076,171.731 101.966 C 171.592 102.535,171.053 103.942,170.531 105.093 C 170.009 106.245,169.471 107.775,169.334 108.493 C 168.608 112.301,166.021 115.015,162.000 116.189 C 161.450 116.350,160.370 116.972,159.600 117.571 C 158.830 118.171,157.300 119.176,156.200 119.804 C 155.100 120.432,153.439 121.634,152.509 122.473 C 151.579 123.313,150.679 124.001,150.509 124.002 C 149.881 124.006,140.649 133.282,139.553 135.010 C 138.928 135.995,138.258 136.800,138.064 136.800 C 137.616 136.800,133.855 142.454,131.976 145.950 C 131.193 147.408,130.064 149.306,129.467 150.169 C 128.870 151.032,128.097 152.718,127.749 153.916 C 127.401 155.114,126.514 157.378,125.778 158.947 C 124.911 160.794,124.142 163.421,123.595 166.400 C 123.131 168.930,122.495 171.879,122.181 172.953 C 120.920 177.275,120.751 186.847,120.876 246.600 L 121.000 305.800 122.466 308.538 C 124.185 311.748,125.103 312.798,127.577 314.384 C 130.969 316.557,138.848 316.507,140.275 314.303 C 140.454 314.026,140.709 294.720,140.841 271.400 C 141.106 224.764,140.936 227.952,143.739 217.297 C 144.557 214.188,145.700 210.962,146.502 209.497 C 147.255 208.124,148.119 206.370,148.423 205.600 C 150.278 200.893,158.634 190.858,163.000 188.092 C 163.880 187.535,164.984 186.669,165.454 186.168 C 165.924 185.667,167.454 184.685,168.854 183.986 C 170.254 183.286,171.772 182.372,172.227 181.955 C 172.682 181.538,174.545 180.653,176.367 179.988 C 178.189 179.323,180.225 178.497,180.891 178.153 C 188.175 174.386,211.825 174.386,219.109 178.153 C 219.775 178.497,221.811 179.323,223.633 179.988 C 225.455 180.653,227.318 181.538,227.773 181.955 C 228.228 182.372,229.711 183.268,231.068 183.946 C 232.426 184.625,234.046 185.657,234.668 186.240 C 235.291 186.822,236.430 187.716,237.200 188.226 C 240.007 190.082,246.318 196.747,248.049 199.683 C 248.708 200.801,249.659 202.274,250.163 202.958 C 250.667 203.641,251.390 205.010,251.770 206.000 C 252.150 206.990,252.976 208.610,253.605 209.600 C 254.696 211.316,257.233 220.139,258.470 226.521 C 258.816 228.306,259.013 240.901,259.175 271.536 L 259.400 314.071 260.351 314.841 C 261.747 315.971,262.809 316.124,267.042 315.807 C 272.084 315.429,274.820 313.576,277.387 308.800 L 279.000 305.800 279.122 246.200 C 279.245 186.042,279.088 177.307,277.810 172.923 C 277.501 171.865,276.868 168.930,276.402 166.400 C 275.883 163.580,275.081 160.794,274.330 159.200 C 273.656 157.770,272.779 155.551,272.380 154.269 C 271.981 152.988,270.945 150.738,270.078 149.269 C 269.211 147.801,268.073 145.864,267.551 144.964 C 265.663 141.715,262.283 136.800,261.936 136.800 C 261.742 136.800,261.071 135.994,260.446 135.009 C 259.263 133.143,251.680 125.542,249.139 123.674 C 248.335 123.083,246.985 122.090,246.139 121.467 C 242.683 118.921,240.421 117.535,237.000 115.867 C 233.089 113.959,231.624 112.346,230.769 109.004 C 230.543 108.122,229.927 106.320,229.401 105.000 C 228.875 103.680,228.336 102.207,228.203 101.726 C 227.243 98.238,219.191 90.069,214.800 88.128 C 213.590 87.593,211.700 86.733,210.600 86.217 C 206.662 84.368,197.859 83.772,192.763 85.010 M203.800 86.001 C 204.680 86.202,207.020 86.898,209.000 87.548 C 210.980 88.198,213.093 88.838,213.695 88.971 C 214.297 89.104,215.377 89.761,216.095 90.431 C 216.813 91.101,218.356 92.371,219.524 93.253 C 220.692 94.135,222.132 95.583,222.724 96.470 C 223.316 97.358,224.454 98.831,225.254 99.742 C 226.447 101.102,226.897 102.152,227.762 105.590 C 228.341 107.894,229.237 110.414,229.752 111.190 C 230.267 111.965,231.074 113.253,231.547 114.052 C 232.378 115.457,235.383 117.200,236.973 117.200 C 237.317 117.200,238.273 117.797,239.099 118.528 C 239.924 119.258,241.410 120.267,242.400 120.771 C 243.390 121.275,244.975 122.401,245.922 123.272 C 246.869 124.144,248.165 125.038,248.801 125.260 C 249.438 125.482,250.316 126.270,250.753 127.010 C 251.190 127.751,252.234 128.710,253.074 129.142 C 253.992 129.614,254.818 130.431,255.146 131.192 C 255.462 131.924,256.251 132.723,257.018 133.089 C 257.771 133.448,258.445 134.124,258.578 134.654 C 258.707 135.167,259.592 136.465,260.545 137.538 C 261.498 138.611,262.859 140.505,263.570 141.747 C 264.280 142.989,265.180 144.175,265.570 144.384 C 265.960 144.593,266.668 145.829,267.142 147.130 C 267.617 148.432,268.520 150.144,269.149 150.936 C 270.476 152.606,270.940 153.738,271.582 156.880 C 271.839 158.134,272.513 159.844,273.080 160.680 C 274.727 163.105,275.741 169.187,276.802 183.000 C 277.665 194.246,277.167 304.457,276.240 307.200 C 275.050 310.720,274.682 311.290,273.200 311.899 C 272.430 312.216,271.333 312.914,270.763 313.452 C 269.781 314.377,269.505 314.423,265.591 314.315 L 261.456 314.200 261.136 313.001 C 260.960 312.342,260.736 292.812,260.637 269.601 C 260.448 225.145,260.360 222.928,258.658 219.527 C 258.072 218.357,257.233 215.696,256.793 213.613 C 256.173 210.676,255.707 209.469,254.719 208.239 C 254.018 207.367,253.122 205.675,252.727 204.481 C 252.333 203.286,251.361 201.590,250.567 200.710 C 249.772 199.831,248.870 198.507,248.561 197.767 C 248.252 197.028,247.446 196.015,246.771 195.515 C 246.096 195.016,245.171 193.946,244.717 193.137 C 244.262 192.328,243.299 191.348,242.575 190.959 C 241.852 190.569,241.074 189.842,240.846 189.342 C 240.618 188.842,239.701 188.060,238.808 187.604 C 237.915 187.149,236.693 186.222,236.092 185.546 C 235.492 184.869,233.920 183.775,232.600 183.115 C 231.280 182.455,229.750 181.513,229.200 181.022 C 228.650 180.531,227.061 179.725,225.670 179.232 C 224.278 178.739,222.499 177.900,221.715 177.368 C 220.016 176.215,218.689 175.839,213.400 175.012 C 211.200 174.668,207.928 174.119,206.128 173.793 C 202.009 173.046,197.940 173.039,194.040 173.770 C 192.368 174.084,189.020 174.643,186.600 175.014 C 182.120 175.699,178.834 176.698,177.655 177.732 C 177.295 178.048,175.830 178.717,174.400 179.218 C 172.970 179.719,171.350 180.531,170.800 181.022 C 170.250 181.513,168.720 182.455,167.400 183.115 C 166.080 183.775,164.508 184.869,163.908 185.546 C 163.307 186.222,162.085 187.149,161.192 187.604 C 160.299 188.060,159.382 188.842,159.154 189.342 C 158.926 189.842,158.148 190.569,157.425 190.959 C 156.701 191.348,155.725 192.351,155.255 193.187 C 154.785 194.023,153.953 195.001,153.406 195.360 C 152.858 195.718,152.040 196.737,151.588 197.624 C 151.135 198.511,150.140 199.928,149.377 200.773 C 148.613 201.619,147.641 203.318,147.217 204.549 C 146.794 205.781,145.905 207.466,145.243 208.294 C 144.328 209.438,143.831 210.762,143.177 213.800 C 142.703 216.000,141.857 218.581,141.298 219.536 C 139.732 222.210,139.647 224.677,139.583 269.076 C 139.541 298.763,139.396 310.534,139.054 312.076 L 138.583 314.200 134.429 314.315 C 130.494 314.423,130.220 314.378,129.237 313.452 C 128.667 312.914,127.570 312.216,126.800 311.899 C 125.318 311.290,124.950 310.720,123.760 307.200 C 122.837 304.467,122.340 194.854,123.198 183.200 C 124.208 169.482,125.258 163.127,126.920 160.680 C 127.487 159.844,128.161 158.134,128.418 156.880 C 129.060 153.738,129.524 152.606,130.851 150.936 C 131.480 150.144,132.383 148.432,132.858 147.130 C 133.332 145.829,134.029 144.599,134.406 144.397 C 134.783 144.195,135.819 142.808,136.710 141.315 C 137.600 139.822,138.881 138.075,139.555 137.434 C 140.230 136.793,140.980 135.668,141.222 134.934 C 141.464 134.200,141.814 133.600,142.000 133.600 C 142.628 133.600,144.866 131.478,145.220 130.547 C 145.413 130.038,146.209 129.356,146.988 129.031 C 147.798 128.692,148.752 127.849,149.218 127.059 C 149.666 126.300,150.442 125.576,150.941 125.450 C 151.441 125.325,152.914 124.291,154.214 123.154 C 155.514 122.016,157.213 120.820,157.989 120.496 C 158.765 120.173,160.076 119.299,160.901 118.554 C 161.727 117.809,162.726 117.200,163.123 117.200 C 164.796 117.200,167.846 115.212,168.798 113.501 C 169.319 112.566,170.064 111.350,170.454 110.800 C 170.844 110.250,171.634 107.916,172.210 105.613 C 173.076 102.152,173.513 101.137,174.729 99.756 C 175.538 98.837,176.684 97.358,177.276 96.470 C 177.868 95.583,179.308 94.135,180.476 93.253 C 181.644 92.371,183.187 91.101,183.905 90.431 C 184.623 89.761,185.703 89.104,186.305 88.971 C 186.907 88.838,189.020 88.196,191.000 87.544 C 197.019 85.562,200.202 85.178,203.800 86.001 M196.800 93.540 C 196.470 93.731,194.440 94.287,192.289 94.775 C 189.053 95.509,188.155 95.885,187.089 96.948 C 186.380 97.656,185.333 98.528,184.761 98.886 C 184.190 99.245,183.483 100.137,183.190 100.869 C 182.896 101.601,182.039 102.898,181.284 103.750 C 178.918 106.423,180.403 110.280,183.525 109.569 C 189.074 108.305,209.738 108.300,216.284 109.562 C 219.507 110.183,221.206 106.455,218.831 103.970 C 218.139 103.245,217.228 101.875,216.808 100.926 C 216.389 99.977,215.874 99.200,215.664 99.200 C 215.455 99.200,214.438 98.401,213.404 97.425 C 210.672 94.843,199.188 92.157,196.800 93.540 M208.056 96.316 C 211.216 97.211,215.156 100.354,216.399 102.971 C 216.825 103.867,217.463 104.992,217.816 105.471 C 218.763 106.754,217.025 107.835,214.218 107.710 C 203.361 107.223,191.414 107.179,188.569 107.614 C 183.348 108.412,180.593 107.112,182.558 104.777 C 183.131 104.096,183.710 103.101,183.844 102.567 C 184.570 99.676,189.862 96.573,196.000 95.439 C 198.108 95.049,205.478 95.585,208.056 96.316 M191.977 184.840 C 188.928 185.235,179.652 188.413,177.580 189.773 C 176.799 190.286,175.269 191.163,174.180 191.722 C 170.696 193.511,160.754 202.954,159.249 205.904 C 158.829 206.727,158.110 207.739,157.651 208.154 C 157.192 208.569,156.442 209.919,155.985 211.154 C 155.527 212.389,154.538 214.660,153.787 216.200 C 150.968 221.976,151.000 221.365,151.000 270.133 L 151.000 313.666 152.306 314.833 L 153.613 316.000 200.000 316.000 L 246.387 316.000 247.694 314.833 L 249.000 313.666 249.000 272.133 C 249.000 225.215,248.854 222.333,246.227 217.253 C 245.872 216.565,245.034 214.517,244.366 212.701 C 243.698 210.886,242.732 208.950,242.221 208.400 C 241.710 207.850,240.984 206.792,240.609 206.048 C 238.908 202.682,228.908 193.073,225.717 191.739 C 224.882 191.391,223.480 190.595,222.600 189.970 C 216.663 185.754,202.831 183.437,191.977 184.840 M205.800 186.340 C 206.460 186.556,209.649 187.314,212.886 188.023 C 218.029 189.150,219.020 189.500,220.740 190.792 C 221.822 191.605,223.552 192.507,224.584 192.796 C 225.729 193.116,226.706 193.696,227.090 194.281 C 227.436 194.809,228.277 195.527,228.959 195.876 C 229.642 196.225,231.493 197.881,233.073 199.555 C 234.654 201.230,236.658 203.320,237.527 204.200 C 238.396 205.080,239.314 206.449,239.565 207.241 C 239.817 208.034,240.484 209.114,241.047 209.641 C 242.244 210.763,243.084 212.612,243.662 215.400 C 243.890 216.500,244.597 218.337,245.232 219.483 C 247.382 223.359,247.400 223.780,247.400 269.800 C 247.400 302.398,247.287 312.454,246.910 313.300 L 246.420 314.400 200.000 314.400 L 153.580 314.400 153.090 313.300 C 152.444 311.851,152.163 231.933,152.781 225.600 C 153.126 222.074,153.417 220.951,154.599 218.600 C 155.372 217.060,156.376 214.540,156.829 213.000 C 157.321 211.327,158.026 209.878,158.580 209.400 C 159.091 208.960,159.893 207.833,160.364 206.896 C 161.982 203.676,172.547 193.813,175.600 192.673 C 177.302 192.038,178.218 191.518,180.459 189.914 C 180.986 189.536,184.384 188.567,188.009 187.760 C 191.634 186.953,195.230 186.145,196.000 185.966 C 197.732 185.561,204.175 185.807,205.800 186.340 M183.184 220.359 C 175.913 221.150,172.841 229.523,178.792 232.330 C 180.954 233.350,217.089 233.561,220.234 232.572 C 227.511 230.283,224.707 221.256,216.433 220.334 C 213.330 219.989,186.402 220.009,183.184 220.359 M220.297 223.694 C 223.511 225.642,223.511 229.234,220.297 230.902 C 218.053 232.066,181.947 232.066,179.703 230.902 C 176.502 229.240,176.492 225.660,179.682 223.700 L 181.799 222.400 199.980 222.400 L 218.161 222.400 220.297 223.694 M101.430 243.240 C 97.413 244.094,97.052 244.291,94.047 247.268 C 92.457 248.842,91.569 250.185,90.655 252.400 L 89.417 255.400 89.199 272.800 L 88.981 290.200 89.991 292.384 C 91.512 295.677,92.199 295.941,99.817 296.162 C 106.758 296.363,109.514 296.000,110.660 294.734 C 111.835 293.436,112.009 246.448,110.846 244.558 C 109.512 242.389,107.049 242.044,101.430 243.240 M291.465 242.889 C 288.250 243.741,288.375 242.600,288.495 269.858 C 288.623 299.264,287.410 296.532,300.183 296.162 C 307.801 295.941,308.488 295.677,310.009 292.384 L 311.019 290.200 310.801 272.800 L 310.583 255.400 309.345 252.400 C 308.431 250.185,307.543 248.842,305.953 247.268 C 302.923 244.267,302.627 244.111,298.238 243.208 C 293.904 242.316,293.670 242.305,291.465 242.889 M109.883 245.600 C 110.101 245.600,109.981 290.976,109.760 292.359 C 109.375 294.770,108.396 295.027,100.200 294.867 C 96.460 294.794,93.230 294.571,93.023 294.371 C 89.686 291.144,90.560 251.529,94.019 249.215 C 94.525 248.877,95.673 247.854,96.570 246.942 C 98.018 245.470,98.512 245.235,101.000 244.840 C 105.532 244.120,105.710 244.121,107.800 244.877 C 108.900 245.274,109.838 245.600,109.883 245.600 M299.200 244.866 C 301.447 245.240,302.022 245.523,303.430 246.949 C 304.327 247.857,305.475 248.877,305.981 249.215 C 309.440 251.529,310.314 291.144,306.977 294.371 C 306.331 294.995,293.192 295.081,291.746 294.471 C 289.977 293.723,289.984 293.829,290.010 268.210 L 290.033 245.643 292.041 244.895 C 294.102 244.126,294.728 244.123,299.200 244.866 M0.000 369.400 C 0.000 371.045,0.084 371.200,0.984 371.200 C 1.849 371.200,2.068 371.524,2.800 373.895 C 3.684 376.756,4.459 378.224,5.603 379.200 C 5.989 379.530,6.796 380.700,7.394 381.800 C 7.993 382.900,9.095 384.308,9.842 384.929 C 10.589 385.550,11.200 386.301,11.200 386.599 C 11.200 386.896,11.761 387.558,12.446 388.070 C 13.131 388.581,14.346 389.657,15.146 390.460 C 15.946 391.263,17.511 392.374,18.625 392.929 C 19.739 393.484,20.894 394.231,21.192 394.591 C 21.947 395.500,22.992 396.026,26.000 397.010 C 28.261 397.750,28.616 398.001,28.727 398.931 C 28.843 399.913,29.000 400.000,30.653 400.000 C 34.231 400.000,33.043 398.120,28.353 396.357 C 26.237 395.562,23.717 394.371,22.753 393.710 C 21.789 393.050,20.264 392.136,19.365 391.680 C 17.845 390.909,17.099 390.301,13.539 386.933 C 9.713 383.315,5.126 376.378,3.730 372.100 C 2.394 368.004,2.148 367.600,0.986 367.600 C 0.084 367.600,0.000 367.754,0.000 369.400 M397.796 368.006 C 397.658 368.230,397.027 369.945,396.394 371.817 C 395.224 375.279,392.629 379.696,389.522 383.516 C 386.509 387.219,382.957 390.501,380.746 391.623 C 379.786 392.111,378.211 393.050,377.247 393.710 C 376.283 394.371,373.763 395.562,371.647 396.357 C 366.957 398.120,365.769 400.000,369.347 400.000 C 371.000 400.000,371.157 399.913,371.273 398.931 C 371.384 398.001,371.739 397.750,374.000 397.010 C 377.009 396.025,378.053 395.500,378.809 394.589 C 379.108 394.229,380.366 393.423,381.606 392.797 C 382.846 392.171,384.351 391.016,384.950 390.230 C 385.550 389.443,386.270 388.800,386.551 388.800 C 387.164 388.800,388.800 387.130,388.800 386.503 C 388.800 386.259,389.411 385.550,390.158 384.929 C 390.905 384.308,392.007 382.900,392.606 381.800 C 393.204 380.700,393.996 379.530,394.365 379.200 C 395.619 378.077,396.125 377.168,396.994 374.483 C 397.752 372.136,397.995 371.784,398.931 371.673 C 400.511 371.486,400.600 367.600,399.024 367.600 C 398.487 367.600,397.934 367.783,397.796 368.006 " stroke="none" fill="#d4ecc8" fill-rule="evenodd"></path><path id="path4" d="M36.400 1.014 C 36.400 2.256,34.576 3.130,29.204 4.464 C 26.797 5.062,25.232 5.696,24.476 6.379 C 23.855 6.941,22.055 8.019,20.477 8.776 C 18.898 9.533,17.503 10.477,17.376 10.875 C 17.250 11.272,16.342 12.069,15.357 12.646 C 14.270 13.284,13.269 14.280,12.807 15.186 C 12.388 16.007,11.607 16.966,11.069 17.318 C 10.532 17.670,9.417 19.182,8.592 20.679 C 7.766 22.176,6.751 23.777,6.335 24.237 C 5.919 24.698,5.115 26.766,4.548 28.833 C 3.162 33.895,2.265 35.600,0.992 35.600 C 0.045 35.600,0.000 35.710,0.000 38.027 C 0.000 42.584,3.349 40.261,4.364 35.000 C 6.014 26.444,5.885 26.855,7.375 25.450 C 8.168 24.701,8.800 23.716,8.800 23.226 C 8.800 22.007,9.404 20.996,11.214 19.186 C 12.068 18.332,13.137 16.908,13.589 16.022 C 14.105 15.010,14.966 14.125,15.905 13.642 C 16.727 13.219,18.254 12.050,19.299 11.045 C 20.343 10.039,21.693 9.108,22.299 8.975 C 24.203 8.560,25.535 7.946,25.750 7.387 C 26.171 6.290,27.904 5.629,32.000 5.001 C 38.801 3.960,41.200 2.900,41.200 0.938 C 41.200 0.058,41.051 0.000,38.800 0.000 C 36.498 0.000,36.400 0.041,36.400 1.014 M358.800 0.938 C 358.800 2.896,361.197 3.958,367.959 4.997 C 372.478 5.691,373.256 5.973,374.147 7.246 C 374.471 7.708,375.758 8.424,377.008 8.836 C 378.507 9.331,379.836 10.142,380.919 11.225 C 381.821 12.127,383.241 13.213,384.074 13.638 C 385.038 14.130,385.888 14.997,386.411 16.022 C 386.863 16.908,387.932 18.332,388.786 19.186 C 390.596 20.996,391.200 22.007,391.200 23.226 C 391.200 23.711,391.821 24.691,392.584 25.410 C 394.019 26.764,394.211 27.314,395.367 33.354 C 396.407 38.789,400.000 41.927,400.000 37.400 C 400.000 35.751,399.917 35.600,399.008 35.600 C 397.735 35.600,396.838 33.895,395.452 28.833 C 394.885 26.766,394.081 24.698,393.665 24.237 C 393.249 23.777,392.234 22.176,391.408 20.679 C 390.583 19.182,389.468 17.670,388.931 17.318 C 388.393 16.966,387.607 15.999,387.184 15.168 C 386.733 14.284,385.765 13.294,384.847 12.778 C 383.986 12.294,383.056 11.478,382.782 10.965 C 382.488 10.417,381.030 9.439,379.241 8.591 C 377.569 7.798,375.750 6.735,375.200 6.228 C 374.578 5.654,372.860 4.971,370.654 4.419 C 365.340 3.090,363.600 2.250,363.600 1.014 C 363.600 0.041,363.502 0.000,361.200 0.000 C 358.949 0.000,358.800 0.058,358.800 0.938 M192.487 82.808 C 188.304 83.418,187.562 83.657,186.223 84.834 C 185.475 85.491,183.724 86.432,182.331 86.926 C 180.307 87.645,179.692 88.068,179.258 89.041 C 178.914 89.814,178.112 90.539,177.058 91.029 C 175.804 91.612,175.291 92.141,174.953 93.200 C 174.707 93.970,174.141 94.787,173.695 95.016 C 172.115 95.827,171.635 96.491,170.785 99.046 C 170.245 100.668,169.577 101.859,168.992 102.242 C 167.794 103.027,167.200 104.765,167.200 107.486 C 167.200 110.164,166.752 111.042,165.017 111.767 C 164.272 112.079,163.358 112.798,162.985 113.367 C 162.613 113.935,161.975 114.400,161.569 114.400 C 159.811 114.400,156.384 116.070,155.792 117.216 C 155.384 118.004,154.681 118.523,153.570 118.856 C 151.987 119.331,150.400 120.806,150.400 121.804 C 150.400 122.077,149.827 122.415,149.126 122.555 C 147.573 122.865,146.400 123.864,146.400 124.876 C 146.400 125.384,145.828 125.874,144.637 126.384 C 143.295 126.959,142.755 127.468,142.378 128.511 C 142.030 129.473,141.501 130.020,140.604 130.344 C 139.379 130.787,138.400 132.162,138.400 133.439 C 138.400 133.770,137.776 134.301,137.014 134.620 C 135.543 135.234,134.800 136.224,134.800 137.569 C 134.800 138.088,134.228 138.751,133.247 139.370 C 131.891 140.226,131.576 140.731,130.762 143.353 C 130.051 145.643,129.630 146.406,128.988 146.567 C 127.953 146.827,127.413 147.857,126.591 151.145 C 126.138 152.957,125.632 153.961,124.835 154.632 C 123.712 155.577,123.007 158.111,122.211 164.067 C 122.073 165.094,121.672 166.174,121.318 166.467 C 118.849 168.515,118.755 171.524,118.886 244.400 L 119.000 308.200 119.908 309.900 C 120.408 310.835,120.988 311.600,121.197 311.600 C 121.407 311.600,122.258 312.620,123.089 313.866 C 125.207 317.042,126.171 317.347,134.200 317.376 C 140.985 317.401,142.399 317.015,143.478 314.839 C 143.653 314.488,143.903 294.400,144.035 270.200 C 144.199 240.013,144.419 225.258,144.737 223.200 C 145.650 217.282,145.975 216.053,147.128 214.140 C 147.772 213.073,148.693 210.874,149.175 209.252 C 149.803 207.143,150.384 206.025,151.218 205.323 C 151.860 204.783,152.572 203.648,152.800 202.800 C 153.044 201.895,153.956 200.496,155.007 199.414 C 155.992 198.400,157.161 196.861,157.603 195.994 C 158.046 195.126,158.901 194.158,159.504 193.841 C 160.107 193.525,161.320 192.516,162.200 191.598 C 163.080 190.681,164.700 189.474,165.800 188.915 C 166.900 188.356,167.955 187.631,168.145 187.304 C 168.845 186.099,170.025 185.200,170.906 185.200 C 172.066 185.200,174.738 183.798,175.899 182.580 C 176.394 182.061,177.474 181.521,178.299 181.379 C 181.608 180.811,184.380 179.955,186.191 178.943 C 190.242 176.679,209.758 176.679,213.809 178.943 C 215.620 179.955,218.392 180.811,221.701 181.379 C 222.526 181.521,223.606 182.061,224.101 182.580 C 225.262 183.798,227.934 185.200,229.094 185.200 C 229.975 185.200,231.155 186.099,231.855 187.304 C 232.045 187.631,233.100 188.356,234.200 188.915 C 235.300 189.474,236.920 190.681,237.800 191.598 C 238.680 192.516,239.893 193.525,240.496 193.841 C 241.099 194.158,241.950 195.119,242.388 195.977 C 242.826 196.835,243.988 198.353,244.972 199.350 C 246.058 200.452,246.927 201.787,247.187 202.752 C 247.423 203.626,248.125 204.771,248.748 205.295 C 249.568 205.985,250.181 207.209,250.962 209.714 C 251.556 211.619,252.213 213.285,252.424 213.415 C 253.124 213.847,254.026 215.995,254.434 218.198 C 255.625 224.643,255.724 228.035,255.958 270.400 C 256.219 317.651,256.077 314.896,258.338 316.600 C 259.301 317.325,259.999 317.398,265.800 317.376 C 273.829 317.347,274.793 317.042,276.911 313.866 C 277.742 312.620,278.593 311.600,278.803 311.600 C 279.012 311.600,279.592 310.835,280.092 309.900 L 281.000 308.200 281.114 244.400 C 281.244 171.732,281.167 169.130,278.784 166.586 C 278.303 166.071,277.875 164.736,277.623 162.964 C 276.866 157.622,276.348 155.887,275.159 154.698 C 274.532 154.071,273.835 152.847,273.610 151.979 C 273.384 151.111,273.013 149.681,272.785 148.803 C 272.496 147.689,272.029 147.029,271.242 146.621 C 270.351 146.161,269.919 145.435,269.195 143.185 C 268.426 140.794,268.043 140.185,266.821 139.413 C 265.759 138.743,265.260 138.075,264.982 136.949 C 264.678 135.720,264.293 135.259,263.100 134.699 C 262.077 134.218,261.600 133.730,261.600 133.166 C 261.600 132.250,259.566 130.002,258.731 129.996 C 258.439 129.994,257.903 129.283,257.539 128.417 C 257.028 127.201,256.577 126.765,255.555 126.500 C 254.583 126.248,254.014 125.738,253.414 124.579 C 252.773 123.341,252.270 122.919,251.087 122.627 C 250.028 122.365,249.511 121.987,249.353 121.356 C 249.056 120.173,248.135 119.409,246.293 118.817 C 245.329 118.508,244.574 117.924,244.199 117.198 C 243.613 116.064,240.170 114.400,238.412 114.400 C 237.995 114.400,237.270 113.860,236.801 113.201 C 236.331 112.541,235.505 111.891,234.964 111.755 C 233.448 111.375,232.800 110.099,232.800 107.498 C 232.800 104.807,232.002 102.582,230.915 102.236 C 230.404 102.074,229.866 101.096,229.268 99.239 C 228.395 96.527,227.914 95.841,226.305 95.016 C 225.859 94.787,225.293 93.970,225.047 93.200 C 224.709 92.141,224.196 91.612,222.940 91.028 C 221.882 90.536,221.058 89.791,220.668 88.974 C 220.175 87.939,219.620 87.555,217.784 86.977 C 216.534 86.584,214.811 85.678,213.956 84.963 C 212.310 83.588,211.839 83.433,207.400 82.809 C 204.176 82.356,195.591 82.355,192.487 82.808 M205.370 83.616 C 208.522 83.977,210.854 84.714,212.800 85.966 C 213.130 86.178,214.466 86.817,215.768 87.385 C 217.071 87.953,218.998 89.224,220.051 90.209 C 221.104 91.194,222.145 92.000,222.364 92.000 C 222.583 92.000,223.343 92.855,224.053 93.900 C 224.764 94.945,226.023 96.579,226.851 97.532 C 227.679 98.484,228.660 100.175,229.030 101.290 C 229.400 102.404,230.113 103.920,230.614 104.659 C 231.115 105.397,231.655 106.944,231.813 108.096 C 232.297 111.615,234.188 113.733,238.176 115.225 C 239.435 115.697,241.036 116.572,241.733 117.172 C 242.430 117.771,244.036 118.846,245.302 119.561 C 246.569 120.276,247.790 121.207,248.016 121.629 C 248.242 122.052,249.130 122.756,249.990 123.195 C 250.850 123.634,252.044 124.635,252.642 125.420 C 253.241 126.205,254.242 127.112,254.868 127.435 C 255.493 127.758,256.447 128.723,256.987 129.580 C 257.528 130.436,258.340 131.254,258.792 131.397 C 259.244 131.541,259.965 132.348,260.396 133.191 C 260.826 134.034,261.668 135.110,262.268 135.582 C 262.868 136.054,263.747 137.123,264.221 137.958 C 264.695 138.792,265.814 140.401,266.708 141.532 C 267.603 142.663,268.556 144.266,268.827 145.094 C 269.099 145.922,269.898 147.278,270.604 148.106 C 271.400 149.041,272.222 150.740,272.770 152.585 C 273.255 154.221,273.969 155.973,274.357 156.479 C 275.510 157.986,276.331 160.507,276.977 164.518 C 277.311 166.598,277.962 169.177,278.423 170.249 C 280.153 174.280,280.200 176.181,280.200 242.600 C 280.200 313.406,280.521 305.216,277.530 310.695 C 274.725 315.834,265.449 318.811,260.392 316.196 C 258.101 315.011,258.218 317.122,257.977 272.400 C 257.761 232.246,257.729 230.850,256.886 226.000 C 255.289 216.805,254.518 213.882,252.872 210.779 C 252.003 209.141,251.182 207.319,251.046 206.731 C 250.911 206.143,250.379 205.153,249.864 204.531 C 249.349 203.909,248.248 202.176,247.418 200.679 C 246.587 199.182,245.468 197.670,244.931 197.318 C 244.393 196.966,243.603 195.989,243.173 195.147 C 242.744 194.305,241.857 193.340,241.203 193.002 C 240.549 192.663,239.606 191.832,239.107 191.154 C 238.608 190.477,237.660 189.643,237.000 189.302 C 236.340 188.961,234.891 187.908,233.781 186.962 C 232.670 186.015,230.870 184.860,229.781 184.395 C 228.691 183.929,227.350 183.128,226.800 182.613 C 226.250 182.099,224.270 181.207,222.400 180.632 C 220.530 180.057,217.830 179.057,216.400 178.409 C 210.304 175.650,189.696 175.650,183.600 178.409 C 182.170 179.057,179.470 180.057,177.600 180.632 C 175.730 181.207,173.750 182.099,173.200 182.613 C 172.650 183.128,171.309 183.929,170.219 184.395 C 169.130 184.860,167.330 186.015,166.219 186.962 C 165.109 187.908,163.660 188.961,163.000 189.302 C 162.340 189.643,161.392 190.477,160.893 191.154 C 160.394 191.832,159.451 192.663,158.797 193.002 C 158.143 193.340,157.256 194.305,156.827 195.147 C 156.397 195.989,155.607 196.966,155.069 197.318 C 154.532 197.670,153.413 199.182,152.582 200.679 C 151.752 202.176,150.651 203.909,150.136 204.531 C 149.621 205.153,149.089 206.143,148.954 206.731 C 148.818 207.319,148.006 209.123,147.148 210.741 C 145.501 213.848,144.569 217.355,143.095 226.000 C 142.273 230.816,142.234 232.522,142.021 272.400 C 141.847 304.972,141.691 313.991,141.288 314.696 C 140.271 316.476,138.692 316.895,133.642 316.724 C 126.486 316.483,124.524 315.059,120.514 307.200 C 119.837 305.873,119.800 302.483,119.800 242.600 C 119.800 176.181,119.847 174.280,121.577 170.249 C 122.038 169.177,122.689 166.598,123.023 164.518 C 123.669 160.507,124.490 157.986,125.643 156.479 C 126.031 155.973,126.745 154.221,127.230 152.585 C 127.805 150.650,128.593 149.051,129.489 148.004 C 130.246 147.120,131.037 145.776,131.246 145.017 C 131.456 144.258,132.368 142.701,133.272 141.556 C 134.177 140.412,135.305 138.792,135.779 137.958 C 136.253 137.123,137.132 136.054,137.732 135.582 C 138.332 135.110,139.174 134.034,139.604 133.191 C 140.035 132.348,140.756 131.541,141.208 131.397 C 141.660 131.254,142.472 130.436,143.013 129.580 C 143.553 128.723,144.507 127.758,145.132 127.435 C 145.758 127.112,146.759 126.205,147.358 125.420 C 147.956 124.635,149.150 123.634,150.010 123.195 C 150.870 122.756,151.758 122.052,151.984 121.629 C 152.210 121.207,153.431 120.276,154.698 119.561 C 155.964 118.846,157.570 117.771,158.267 117.172 C 158.964 116.572,160.565 115.697,161.824 115.225 C 165.812 113.733,167.703 111.615,168.187 108.096 C 168.345 106.944,168.885 105.397,169.386 104.659 C 169.887 103.920,170.600 102.404,170.970 101.290 C 171.340 100.175,172.321 98.484,173.149 97.532 C 173.977 96.579,175.236 94.945,175.947 93.900 C 176.657 92.855,177.417 92.000,177.636 92.000 C 177.855 92.000,178.896 91.194,179.949 90.209 C 181.002 89.224,182.929 87.953,184.232 87.385 C 185.534 86.817,186.870 86.178,187.200 85.966 C 190.949 83.555,197.473 82.711,205.370 83.616 M194.800 96.638 C 191.524 97.234,190.072 97.776,189.000 98.803 C 188.340 99.435,187.194 100.368,186.453 100.876 C 185.254 101.698,184.682 102.703,183.743 105.639 C 183.368 106.812,185.568 107.352,188.268 106.749 C 189.822 106.402,193.736 106.228,200.000 106.228 C 206.264 106.228,210.178 106.402,211.732 106.749 C 214.432 107.352,216.632 106.812,216.257 105.639 C 215.318 102.703,214.746 101.698,213.547 100.876 C 212.806 100.368,211.660 99.440,211.000 98.813 C 209.120 97.027,199.651 95.756,194.800 96.638 M204.200 97.565 C 206.584 97.846,207.409 98.170,209.753 99.747 C 211.267 100.766,212.730 101.600,213.004 101.600 C 213.813 101.600,214.281 102.476,214.583 104.558 L 214.866 106.515 213.391 106.276 C 212.579 106.144,211.702 105.745,211.441 105.388 C 209.699 103.006,191.179 103.186,188.091 105.614 C 186.161 107.133,185.064 106.701,185.387 104.549 C 185.764 102.032,185.970 101.600,186.790 101.600 C 187.177 101.600,188.733 100.763,190.247 99.740 C 193.745 97.376,197.555 96.782,204.200 97.565 M190.263 182.849 C 185.656 183.292,183.728 183.836,182.536 185.028 C 181.941 185.623,180.522 186.260,178.882 186.669 C 176.931 187.156,175.840 187.695,174.881 188.648 C 174.155 189.369,173.165 190.081,172.681 190.231 C 170.601 190.875,168.120 192.444,167.083 193.771 C 166.469 194.557,165.735 195.200,165.453 195.200 C 164.832 195.200,163.200 196.871,163.200 197.507 C 163.200 197.757,162.480 198.541,161.600 199.248 C 160.720 199.955,159.635 201.152,159.189 201.908 C 158.744 202.663,157.664 204.129,156.790 205.166 C 155.916 206.202,154.933 207.954,154.605 209.059 C 154.277 210.164,153.631 211.410,153.171 211.826 C 151.992 212.893,151.310 214.727,150.620 218.679 C 150.291 220.561,149.612 222.933,149.111 223.951 L 148.200 225.800 148.090 269.792 C 148.006 303.300,148.094 314.061,148.459 314.943 C 149.613 317.728,146.779 317.581,199.650 317.591 C 250.508 317.601,249.037 317.647,250.823 315.978 L 252.017 314.863 251.909 271.931 L 251.800 229.000 250.935 227.000 C 250.459 225.900,249.770 222.940,249.403 220.421 C 248.738 215.854,248.033 213.865,246.433 212.032 C 245.968 211.499,245.475 210.359,245.337 209.499 C 245.180 208.516,244.465 207.168,243.412 205.868 C 242.491 204.730,241.256 202.974,240.668 201.964 C 240.080 200.954,239.157 199.926,238.616 199.680 C 238.075 199.434,237.268 198.518,236.823 197.645 C 236.333 196.684,235.395 195.711,234.442 195.176 C 233.578 194.690,232.491 193.778,232.026 193.150 C 231.165 191.984,228.517 190.400,227.431 190.400 C 227.101 190.400,226.149 189.712,225.315 188.872 C 224.121 187.668,223.212 187.197,221.021 186.648 C 219.297 186.216,217.873 185.582,217.268 184.977 C 215.061 182.770,201.875 181.731,190.263 182.849 M210.400 184.009 C 211.830 184.235,214.038 184.955,215.306 185.610 C 216.574 186.264,217.782 186.800,217.991 186.800 C 219.012 186.800,223.012 188.609,224.133 189.578 C 224.830 190.180,225.995 190.876,226.722 191.124 C 229.500 192.070,239.350 201.584,241.115 205.026 C 241.559 205.891,242.384 207.031,242.947 207.557 C 243.521 208.092,244.351 209.678,244.830 211.157 C 245.302 212.611,246.106 214.430,246.616 215.200 C 247.902 217.139,248.602 220.250,249.586 228.400 C 250.884 239.154,250.692 312.879,249.361 314.671 C 247.711 316.893,250.149 316.788,200.000 316.788 C 149.851 316.788,152.289 316.893,150.639 314.671 C 149.626 313.308,149.052 235.581,150.000 228.200 C 150.845 221.621,152.004 216.691,153.198 214.600 C 153.826 213.500,154.715 211.595,155.174 210.366 C 155.633 209.137,156.474 207.697,157.043 207.166 C 157.612 206.635,158.410 205.570,158.815 204.800 C 159.221 204.030,160.117 202.810,160.807 202.089 C 161.497 201.367,162.789 199.937,163.677 198.911 C 165.773 196.490,171.546 191.800,173.370 191.038 C 174.152 190.712,175.469 189.907,176.296 189.250 C 177.123 188.593,179.060 187.661,180.600 187.178 C 182.140 186.695,183.940 185.976,184.600 185.580 C 188.151 183.451,201.653 182.629,210.400 184.009 M180.100 224.656 C 178.180 225.814,178.136 225.980,179.145 228.200 C 180.412 230.984,179.208 230.832,200.000 230.832 C 220.792 230.832,219.588 230.984,220.855 228.200 C 221.869 225.969,221.822 225.806,219.829 224.638 L 218.058 223.600 199.929 223.616 L 181.800 223.631 180.100 224.656 M219.348 225.392 C 220.117 225.974,219.225 229.985,218.321 230.008 C 218.144 230.013,209.900 230.017,200.000 230.017 C 190.100 230.017,181.856 230.013,181.679 230.008 C 180.775 229.985,179.883 225.974,180.652 225.392 C 181.764 224.550,218.236 224.550,219.348 225.392 M104.400 239.399 C 104.070 239.480,103.144 239.653,102.342 239.784 C 101.540 239.914,100.211 240.556,99.387 241.210 C 98.564 241.865,97.492 242.400,97.005 242.400 C 95.180 242.400,91.986 245.221,89.915 248.662 C 89.538 249.288,88.853 250.261,88.392 250.825 C 86.983 252.552,86.747 256.426,86.878 275.711 C 87.039 299.570,85.844 297.800,101.800 297.800 C 112.070 297.800,112.512 297.703,113.180 295.295 C 113.790 293.101,113.687 245.170,113.068 242.837 C 112.357 240.161,108.123 238.481,104.400 239.399 M290.514 239.554 C 286.375 240.280,286.400 240.103,286.402 269.520 C 286.405 294.846,286.499 296.369,288.118 297.295 C 289.657 298.176,306.853 297.991,309.508 297.065 C 313.118 295.807,312.981 296.616,313.122 275.711 C 313.253 256.426,313.017 252.552,311.608 250.825 C 311.147 250.261,310.462 249.288,310.085 248.662 C 308.003 245.202,304.819 242.400,302.970 242.400 C 302.470 242.400,301.533 241.955,300.886 241.411 C 298.827 239.679,294.363 238.879,290.514 239.554 M109.792 241.823 C 112.527 243.121,112.425 242.026,112.406 269.677 L 112.389 294.593 111.440 295.542 C 110.142 296.840,108.046 297.163,100.800 297.180 C 87.629 297.213,87.905 297.750,88.077 272.393 L 88.200 254.187 89.500 252.225 C 90.215 251.146,90.800 249.996,90.800 249.669 C 90.800 248.219,96.687 243.280,98.984 242.803 C 100.192 242.553,102.129 241.998,103.290 241.570 C 105.585 240.724,107.646 240.805,109.792 241.823 M296.623 241.574 C 297.835 242.000,299.813 242.554,301.019 242.804 C 303.313 243.280,309.200 248.220,309.200 249.669 C 309.200 249.996,309.785 251.146,310.500 252.225 L 311.800 254.187 311.923 272.393 C 312.095 297.698,312.336 297.221,299.400 297.174 C 292.016 297.147,289.840 296.822,288.573 295.555 L 287.611 294.593 287.594 269.677 C 287.575 242.054,287.477 243.106,290.182 241.846 C 292.766 240.643,293.843 240.597,296.623 241.574 M0.000 361.973 C 0.000 364.290,0.045 364.400,0.992 364.400 C 2.271 364.400,3.199 366.174,4.525 371.155 C 5.161 373.548,5.863 375.243,6.501 375.932 C 7.046 376.519,8.077 378.118,8.794 379.485 C 9.510 380.852,10.522 382.250,11.043 382.591 C 11.564 382.933,12.354 383.927,12.800 384.800 C 13.315 385.810,14.169 386.674,15.144 387.172 C 15.988 387.602,16.979 388.414,17.348 388.976 C 17.716 389.539,19.319 390.648,20.909 391.441 C 22.499 392.235,24.250 393.285,24.800 393.776 C 25.356 394.273,27.306 395.071,29.195 395.575 C 33.865 396.821,35.600 397.751,35.600 399.008 C 35.600 399.944,35.725 400.000,37.800 400.000 C 40.733 400.000,41.065 398.346,38.430 396.865 C 37.194 396.171,29.625 394.400,27.891 394.400 C 27.697 394.400,26.850 393.706,26.010 392.858 C 24.939 391.775,24.005 391.239,22.880 391.059 C 21.719 390.874,20.765 390.306,19.423 389.002 C 18.404 388.012,16.863 386.840,15.999 386.399 C 15.134 385.958,14.218 385.193,13.962 384.699 C 12.754 382.364,11.335 380.402,10.696 380.184 C 9.857 379.898,8.800 377.992,8.800 376.767 C 8.800 376.285,8.162 375.293,7.375 374.550 C 5.885 373.145,6.014 373.556,4.364 365.000 C 3.349 359.739,0.000 357.416,0.000 361.973 M396.659 362.100 C 396.110 363.255,395.452 365.550,395.197 367.200 C 394.450 372.043,394.031 373.224,392.570 374.603 C 391.816 375.313,391.200 376.287,391.200 376.767 C 391.200 377.992,390.143 379.898,389.304 380.184 C 388.665 380.402,387.246 382.364,386.038 384.699 C 385.782 385.193,384.866 385.958,384.001 386.399 C 383.137 386.840,381.596 388.012,380.577 389.002 C 379.235 390.306,378.281 390.874,377.120 391.059 C 375.995 391.239,375.061 391.775,373.990 392.858 C 373.150 393.706,372.303 394.400,372.109 394.400 C 370.375 394.400,362.806 396.171,361.570 396.865 C 358.935 398.346,359.267 400.000,362.200 400.000 C 364.275 400.000,364.400 399.944,364.400 399.008 C 364.400 397.751,366.135 396.821,370.805 395.575 C 372.694 395.071,374.644 394.273,375.200 393.776 C 375.750 393.285,377.501 392.235,379.091 391.441 C 380.681 390.648,382.284 389.539,382.652 388.976 C 383.021 388.414,384.012 387.602,384.856 387.172 C 385.831 386.674,386.685 385.810,387.200 384.800 C 387.646 383.927,388.436 382.933,388.957 382.591 C 389.478 382.250,390.490 380.852,391.206 379.485 C 391.923 378.118,392.954 376.520,393.497 375.933 C 394.112 375.270,394.825 373.594,395.384 371.500 C 396.969 365.563,397.537 364.400,398.854 364.400 C 399.976 364.400,400.000 364.355,400.000 362.200 C 400.000 358.952,398.183 358.898,396.659 362.100 " stroke="none" fill="#b4dc95" fill-rule="evenodd"></path></g></svg>